<mxfile host="app.diagrams.net" modified="2021-12-17T12:01:45.952Z" agent="5.0 (Windows NT 10.0; Win64; x64) AppleWebKit/537.36 (KHTML, like Gecko) Chrome/92.0.4515.131 Safari/537.36" etag="7wh89VJ9Y-TImSqZaTA_" version="15.9.6" type="github">
  <diagram id="C5RBs43oDa-KdzZeNtuy" name="Page-1">
    <mxGraphModel dx="1318" dy="819" grid="0" gridSize="10" guides="1" tooltips="1" connect="1" arrows="1" fold="1" page="0" pageScale="1" pageWidth="827" pageHeight="1169" math="0" shadow="0">
      <root>
        <mxCell id="WIyWlLk6GJQsqaUBKTNV-0" />
        <mxCell id="WIyWlLk6GJQsqaUBKTNV-1" parent="WIyWlLk6GJQsqaUBKTNV-0" />
        <mxCell id="I0Dzq6s3BQid7fAKgQhY-10" value="" style="edgeStyle=orthogonalEdgeStyle;rounded=0;orthogonalLoop=1;jettySize=auto;html=1;" edge="1" parent="WIyWlLk6GJQsqaUBKTNV-1" source="I0Dzq6s3BQid7fAKgQhY-0" target="I0Dzq6s3BQid7fAKgQhY-1">
          <mxGeometry relative="1" as="geometry" />
        </mxCell>
        <mxCell id="I0Dzq6s3BQid7fAKgQhY-0" value="需求讲解&lt;br&gt;（1）" style="rounded=0;whiteSpace=wrap;html=1;" vertex="1" parent="WIyWlLk6GJQsqaUBKTNV-1">
          <mxGeometry x="-120" y="-60" width="120" height="60" as="geometry" />
        </mxCell>
        <mxCell id="I0Dzq6s3BQid7fAKgQhY-29" value="" style="edgeStyle=orthogonalEdgeStyle;rounded=0;orthogonalLoop=1;jettySize=auto;html=1;" edge="1" parent="WIyWlLk6GJQsqaUBKTNV-1" source="I0Dzq6s3BQid7fAKgQhY-1" target="I0Dzq6s3BQid7fAKgQhY-28">
          <mxGeometry relative="1" as="geometry" />
        </mxCell>
        <mxCell id="I0Dzq6s3BQid7fAKgQhY-1" value="创建Story&lt;br&gt;（2）" style="rounded=0;whiteSpace=wrap;html=1;" vertex="1" parent="WIyWlLk6GJQsqaUBKTNV-1">
          <mxGeometry x="70" y="-60" width="120" height="60" as="geometry" />
        </mxCell>
        <mxCell id="I0Dzq6s3BQid7fAKgQhY-7" value="" style="edgeStyle=orthogonalEdgeStyle;rounded=0;orthogonalLoop=1;jettySize=auto;html=1;" edge="1" parent="WIyWlLk6GJQsqaUBKTNV-1" target="I0Dzq6s3BQid7fAKgQhY-5">
          <mxGeometry relative="1" as="geometry">
            <mxPoint x="537" as="sourcePoint" />
            <Array as="points">
              <mxPoint x="500" />
            </Array>
          </mxGeometry>
        </mxCell>
        <mxCell id="I0Dzq6s3BQid7fAKgQhY-2" value="创建Sub-Task&lt;br&gt;评估工作量&lt;br&gt;（4）" style="rounded=0;whiteSpace=wrap;html=1;" vertex="1" parent="WIyWlLk6GJQsqaUBKTNV-1">
          <mxGeometry x="435" y="-60" width="130" height="60" as="geometry" />
        </mxCell>
        <mxCell id="I0Dzq6s3BQid7fAKgQhY-9" value="" style="edgeStyle=orthogonalEdgeStyle;rounded=0;orthogonalLoop=1;jettySize=auto;html=1;" edge="1" parent="WIyWlLk6GJQsqaUBKTNV-1" source="I0Dzq6s3BQid7fAKgQhY-5" target="I0Dzq6s3BQid7fAKgQhY-8">
          <mxGeometry relative="1" as="geometry" />
        </mxCell>
        <mxCell id="I0Dzq6s3BQid7fAKgQhY-17" value="Pass" style="edgeLabel;html=1;align=center;verticalAlign=middle;resizable=0;points=[];" vertex="1" connectable="0" parent="I0Dzq6s3BQid7fAKgQhY-9">
          <mxGeometry x="0.2891" relative="1" as="geometry">
            <mxPoint x="42" as="offset" />
          </mxGeometry>
        </mxCell>
        <mxCell id="I0Dzq6s3BQid7fAKgQhY-5" value="评审Sub-Task&lt;br&gt;(5)" style="rhombus;whiteSpace=wrap;html=1;" vertex="1" parent="WIyWlLk6GJQsqaUBKTNV-1">
          <mxGeometry x="435" y="43" width="130" height="80" as="geometry" />
        </mxCell>
        <mxCell id="I0Dzq6s3BQid7fAKgQhY-25" value="" style="edgeStyle=orthogonalEdgeStyle;rounded=0;orthogonalLoop=1;jettySize=auto;html=1;" edge="1" parent="WIyWlLk6GJQsqaUBKTNV-1" source="I0Dzq6s3BQid7fAKgQhY-8" target="I0Dzq6s3BQid7fAKgQhY-24">
          <mxGeometry relative="1" as="geometry" />
        </mxCell>
        <mxCell id="I0Dzq6s3BQid7fAKgQhY-26" value="Pass" style="edgeLabel;html=1;align=center;verticalAlign=middle;resizable=0;points=[];" vertex="1" connectable="0" parent="I0Dzq6s3BQid7fAKgQhY-25">
          <mxGeometry x="0.2163" y="-2" relative="1" as="geometry">
            <mxPoint x="9" as="offset" />
          </mxGeometry>
        </mxCell>
        <mxCell id="I0Dzq6s3BQid7fAKgQhY-32" value="" style="edgeStyle=orthogonalEdgeStyle;rounded=0;orthogonalLoop=1;jettySize=auto;html=1;" edge="1" parent="WIyWlLk6GJQsqaUBKTNV-1" source="I0Dzq6s3BQid7fAKgQhY-8" target="I0Dzq6s3BQid7fAKgQhY-1">
          <mxGeometry relative="1" as="geometry" />
        </mxCell>
        <mxCell id="I0Dzq6s3BQid7fAKgQhY-8" value="复审Sub-Task&lt;br&gt;(6)" style="rhombus;whiteSpace=wrap;html=1;" vertex="1" parent="WIyWlLk6GJQsqaUBKTNV-1">
          <mxGeometry x="65" y="43" width="130" height="80" as="geometry" />
        </mxCell>
        <mxCell id="I0Dzq6s3BQid7fAKgQhY-15" value="" style="edgeStyle=elbowEdgeStyle;elbow=vertical;endArrow=classic;html=1;rounded=0;exitX=1;exitY=0.5;exitDx=0;exitDy=0;entryX=0.997;entryY=0.596;entryDx=0;entryDy=0;entryPerimeter=0;" edge="1" parent="WIyWlLk6GJQsqaUBKTNV-1" source="I0Dzq6s3BQid7fAKgQhY-5" target="I0Dzq6s3BQid7fAKgQhY-2">
          <mxGeometry width="50" height="50" relative="1" as="geometry">
            <mxPoint x="600" y="200" as="sourcePoint" />
            <mxPoint x="650" y="150" as="targetPoint" />
            <Array as="points">
              <mxPoint x="630" y="120" />
              <mxPoint x="640" y="150" />
              <mxPoint x="670" y="140" />
            </Array>
          </mxGeometry>
        </mxCell>
        <mxCell id="I0Dzq6s3BQid7fAKgQhY-16" value="Fail" style="edgeLabel;html=1;align=center;verticalAlign=middle;resizable=0;points=[];" vertex="1" connectable="0" parent="I0Dzq6s3BQid7fAKgQhY-15">
          <mxGeometry x="0.0851" relative="1" as="geometry">
            <mxPoint y="10" as="offset" />
          </mxGeometry>
        </mxCell>
        <mxCell id="I0Dzq6s3BQid7fAKgQhY-18" value="" style="edgeStyle=elbowEdgeStyle;elbow=vertical;endArrow=classic;html=1;rounded=0;exitX=0.5;exitY=1;exitDx=0;exitDy=0;entryX=0.5;entryY=1;entryDx=0;entryDy=0;" edge="1" parent="WIyWlLk6GJQsqaUBKTNV-1" source="I0Dzq6s3BQid7fAKgQhY-8" target="I0Dzq6s3BQid7fAKgQhY-5">
          <mxGeometry width="50" height="50" relative="1" as="geometry">
            <mxPoint x="312" y="240" as="sourcePoint" />
            <mxPoint x="362" y="190" as="targetPoint" />
            <Array as="points">
              <mxPoint x="432" y="160" />
            </Array>
          </mxGeometry>
        </mxCell>
        <mxCell id="I0Dzq6s3BQid7fAKgQhY-19" value="Fail" style="edgeLabel;html=1;align=center;verticalAlign=middle;resizable=0;points=[];" vertex="1" connectable="0" parent="I0Dzq6s3BQid7fAKgQhY-18">
          <mxGeometry x="-0.1017" y="1" relative="1" as="geometry">
            <mxPoint x="38" as="offset" />
          </mxGeometry>
        </mxCell>
        <mxCell id="I0Dzq6s3BQid7fAKgQhY-24" value="结束&lt;br&gt;(7)" style="ellipse;whiteSpace=wrap;html=1;aspect=fixed;" vertex="1" parent="WIyWlLk6GJQsqaUBKTNV-1">
          <mxGeometry x="-94" y="53" width="60" height="60" as="geometry" />
        </mxCell>
        <mxCell id="I0Dzq6s3BQid7fAKgQhY-30" value="" style="edgeStyle=orthogonalEdgeStyle;rounded=0;orthogonalLoop=1;jettySize=auto;html=1;" edge="1" parent="WIyWlLk6GJQsqaUBKTNV-1" source="I0Dzq6s3BQid7fAKgQhY-28" target="I0Dzq6s3BQid7fAKgQhY-2">
          <mxGeometry relative="1" as="geometry" />
        </mxCell>
        <mxCell id="I0Dzq6s3BQid7fAKgQhY-28" value="指派Story&lt;br&gt;（3）" style="rounded=0;whiteSpace=wrap;html=1;" vertex="1" parent="WIyWlLk6GJQsqaUBKTNV-1">
          <mxGeometry x="255" y="-60" width="130" height="60" as="geometry" />
        </mxCell>
      </root>
    </mxGraphModel>
  </diagram>
</mxfile>
